# xmcd CD database file
#
# Track frame offsets:
#	151
#	11324
#	25643
#	37990
#	50197
#	67152
#	78884
#	93106
#	106950
#	122064
#	135275
#	149539
#	175691
#	186039
#	203226
#	217219
#	232472
#	245333
#	259800
#	271107
#
# Disc length: 3820 seconds
#
# Revision: 0
# Processed by: cddbd v1.5.2PL0 Copyright (c) Steve Scherf et al.
# Submitted via: CDex 1.51
#
DISCID=1a0eea14
DTITLE=Benny Goodman - Killer Diller, Vol 2
DYEAR=2004
DGENRE=Jazz
TTITLE0=China Boy
TTITLE1=All My Life
TTITLE2=Nobody's Sweetheart
TTITLE3=Dinah
TTITLE4=Ida Sweet As Apple Cider
TTITLE5=Blues In Your Flat
TTITLE6=Get Happy
TTITLE7=I Know That You Know (And You Know That I Know)
TTITLE8=Don't Be That Way
TTITLE9=The Sheik Of Araby
TTITLE10=Runnin' Wild
TTITLE11=Pick A Rib (Parts 1 and 2)
TTITLE12=Fascinating Rhythm
TTITLE13=Sweet Lorraine
TTITLE14=Tea For Two
TTITLE15=Vibraphone Blues
TTITLE16=Madhouse
TTITLE17=Music Hall Rag
TTITLE18=Nice Work If You Can Get It
TTITLE19=Too Good To Be True
EXTD=YEAR: 2004
EXTT0=
EXTT1=
EXTT2=
EXTT3=
EXTT4=
EXTT5=
EXTT6=
EXTT7=
EXTT8=
EXTT9=
EXTT10=
EXTT11=
EXTT12=
EXTT13=
EXTT14=
EXTT15=
EXTT16=
EXTT17=
EXTT18=
EXTT19=
PLAYORDER=
